<svg width="16" height="19" viewBox="0 0 16 19" fill="none" xmlns="http://www.w3.org/2000/svg">
<path d="M15 18.7931H1C0.447715 18.7931 0 18.3454 0 17.7931V8.20714C0 7.94194 0.105451 7.68763 0.293 7.50013L7.293 0.500135C7.48057 0.312358 7.73509 0.206848 8.0005 0.206848C8.26591 0.206848 8.52043 0.312358 8.708 0.500135L15.708 7.50013C15.8957 7.68742 16.0009 7.94195 16 8.20714V17.7931C16 18.3454 15.5523 18.7931 15 18.7931ZM6 11.7931H10V16.7931H14V8.62113L8 2.62113L2 8.62113V16.7931H6V11.7931Z" fill="#484848"/>
</svg>
