<svg width="20" height="19" viewBox="0 0 20 19" fill="none" xmlns="http://www.w3.org/2000/svg">
<path d="M7 0.5C4.23858 0.5 2 2.73858 2 5.5C2 8.26142 4.23858 10.5 7 10.5C9.76142 10.5 12 8.26142 12 5.5C12 2.73858 9.76142 0.5 7 0.5ZM4 5.5C4 3.84315 5.34315 2.5 7 2.5C8.65685 2.5 10 3.84315 10 5.5C10 7.15685 8.65685 8.5 7 8.5C5.34315 8.5 4 7.15685 4 5.5Z" fill="#FF4141"/>
<path d="M14.9084 5.71828C14.6271 5.57484 14.3158 5.50006 14 5.50006V3.50006C14.6316 3.50006 15.2542 3.64956 15.8169 3.93645C15.8789 3.96805 15.9399 4.00121 16 4.0359C16.4854 4.31614 16.9072 4.69569 17.2373 5.15055C17.6083 5.66172 17.8529 6.25347 17.9512 6.87737C18.0496 7.50126 17.9987 8.13958 17.8029 8.74005C17.6071 9.34053 17.2719 9.88611 16.8247 10.3321C16.3775 10.7782 15.8311 11.1119 15.2301 11.3062C14.6953 11.479 14.1308 11.537 13.5735 11.4772C13.5046 11.4698 13.4357 11.4606 13.367 11.4496C12.7438 11.3497 12.1531 11.1038 11.6431 10.7319L11.6421 10.7311L12.821 9.11557C13.0761 9.30172 13.3717 9.42477 13.6835 9.47474C13.9953 9.52471 14.3145 9.50014 14.615 9.40302C14.9155 9.30591 15.1887 9.13903 15.4123 8.91602C15.6359 8.69302 15.8035 8.42024 15.9014 8.12001C15.9993 7.81978 16.0247 7.50063 15.9756 7.18869C15.9264 6.87675 15.8041 6.58089 15.6186 6.32531C15.4331 6.06974 15.1898 5.86172 14.9084 5.71828Z" fill="#FF4141"/>
<path d="M17.9981 18.5C17.9981 17.975 17.8947 17.4551 17.6938 16.97C17.4928 16.4849 17.1983 16.0442 16.8271 15.6729C16.4558 15.3017 16.0151 15.0072 15.53 14.8062C15.0449 14.6053 14.525 14.5019 14 14.5019V12.5C14.6821 12.5 15.3584 12.6163 16 12.8431C16.0996 12.8783 16.1983 12.9162 16.2961 12.9567C17.0241 13.2583 17.6855 13.7002 18.2426 14.2574C18.7998 14.8145 19.2417 15.4759 19.5433 16.2039C19.5838 16.3017 19.6217 16.4004 19.6569 16.5C19.8837 17.1416 20 17.8179 20 18.5H17.9981Z" fill="#FF4141"/>
<path d="M14 18.5H12C12 15.7386 9.76142 13.5 7 13.5C4.23858 13.5 2 15.7386 2 18.5H0C0 14.634 3.13401 11.5 7 11.5C10.866 11.5 14 14.634 14 18.5Z" fill="#FF4141"/>
</svg>
